<?xml version="1.0" standalone="no"?>
<!DOCTYPE svg PUBLIC "-//W3C//DTD SVG 20010904//EN"
 "http://www.w3.org/TR/2001/REC-SVG-20010904/DTD/svg10.dtd">
<svg version="1.0" xmlns="http://www.w3.org/2000/svg"
 width="1024.000000pt" height="1024.000000pt" viewBox="0 0 1024.000000 1024.000000"
 preserveAspectRatio="xMidYMid meet">

<g transform="translate(0.000000,1024.000000) scale(0.100000,-0.100000)"
fill="#000000" stroke="none">
<path d="M5065 9970 c-220 -36 -409 -194 -476 -397 -27 -82 -42 -178 -36 -236
3 -39 11 -56 31 -74 25 -21 37 -23 135 -23 141 0 149 5 162 115 22 185 135
286 304 272 138 -11 218 -94 218 -228 0 -108 -48 -172 -219 -292 -101 -71
-127 -98 -160 -171 -20 -44 -28 -81 -33 -154 l-6 -95 -456 -242 -456 -242
-214 -6 c-121 -3 -252 -13 -301 -21 -191 -34 -402 -127 -561 -247 -111 -83
-1250 -1189 -1282 -1244 -64 -113 -54 -135 320 -675 169 -245 319 -458 334
-473 70 -77 168 -101 261 -65 25 10 165 105 310 211 l265 194 3 -31 c1 -17 40
-706 87 -1531 46 -825 87 -1528 90 -1562 17 -166 83 -261 209 -298 75 -22
3057 -22 3132 0 126 37 192 132 209 298 3 34 44 737 90 1562 47 825 86 1514
87 1531 l3 31 245 -180 c270 -198 347 -241 425 -241 57 0 120 31 166 81 41 44
638 919 660 966 36 80 22 151 -44 227 -74 85 -1140 1118 -1212 1175 -141 111
-260 174 -430 230 -127 41 -235 56 -464 62 l-214 6 -456 243 c-496 264 -475
249 -451 327 15 53 67 106 163 171 45 30 96 68 114 83 48 42 100 127 123 200
25 82 27 225 4 304 -59 197 -216 361 -403 419 -73 23 -203 33 -276 20z m429
-1762 c415 -221 416 -222 416 -231 0 -17 -83 -107 -141 -152 -78 -61 -205
-127 -305 -159 -297 -92 -640 -36 -887 146 -64 48 -157 145 -157 164 0 9 726
403 744 404 4 0 153 -77 330 -172z"/>
<path d="M1768 1788 c9 -69 9 -833 0 -920 l-7 -68 72 0 72 0 -3 269 -4 269 44
32 c143 106 262 105 303 -3 15 -39 16 -76 13 -288 -2 -134 -8 -252 -12 -261
-7 -16 -1 -18 74 -18 74 0 81 2 74 18 -4 9 -10 141 -13 292 -6 240 -9 280 -25
313 -66 133 -236 138 -402 11 -24 -19 -47 -34 -50 -34 -3 0 -4 99 -2 220 l3
220 -72 0 -72 0 7 -52z"/>
<path d="M1270 1815 c-58 -18 -115 -66 -142 -118 -17 -32 -22 -59 -22 -112 0
-106 24 -145 185 -310 149 -153 180 -200 181 -276 0 -91 -60 -149 -155 -149
-80 0 -163 58 -189 132 -16 45 -26 33 -33 -43 -9 -85 -5 -90 80 -120 223 -79
415 24 415 223 0 99 -39 159 -210 328 -137 135 -170 186 -170 261 0 84 59 139
147 139 53 0 102 -27 140 -78 l33 -44 2 51 c1 28 2 59 2 68 2 42 -181 75 -264
48z"/>
<path d="M6062 1812 c-109 -39 -169 -131 -160 -246 8 -97 43 -151 191 -296
152 -148 182 -198 175 -285 -5 -59 -28 -94 -80 -121 -38 -20 -112 -17 -157 5
-45 23 -98 81 -107 116 -9 38 -22 30 -28 -17 -14 -116 -16 -108 25 -129 218
-110 445 -25 466 175 11 110 -21 164 -205 350 -142 144 -172 190 -172 263 0
60 16 91 59 120 79 53 183 18 248 -83 10 -16 12 -7 12 52 l1 71 -52 17 c-84
27 -155 29 -216 8z"/>
<path d="M6584 1745 c3 -8 8 -62 12 -120 l7 -105 -62 0 -61 0 0 -30 0 -30 60
0 60 0 0 -257 c1 -312 9 -346 95 -391 37 -19 155 -22 207 -4 36 13 38 17 76
112 3 8 -14 -2 -37 -22 -81 -69 -155 -72 -198 -8 -22 32 -23 40 -23 301 l0
269 119 0 c115 0 119 1 125 23 3 12 6 25 6 30 0 4 -56 7 -125 7 l-125 0 0 78
c1 42 5 96 9 120 l8 42 -79 0 c-67 0 -79 -2 -74 -15z"/>
<path d="M2724 1514 c-56 -14 -62 -17 -82 -60 -12 -24 -22 -46 -22 -48 0 -2
35 14 77 36 72 37 83 40 145 36 105 -6 154 -54 160 -158 l3 -55 -85 -7 c-242
-20 -367 -97 -378 -234 -8 -100 44 -184 135 -215 21 -8 72 -14 113 -14 76 0
122 13 172 47 34 24 38 23 38 -7 0 -24 2 -25 71 -25 l71 0 -7 32 c-4 18 -10
148 -14 289 l-6 256 -28 42 c-56 84 -216 122 -363 85z m286 -424 c0 -149 -10
-177 -76 -216 -85 -50 -186 -36 -230 31 -43 65 -36 176 14 228 50 53 112 74
225 76 l67 1 0 -120z"/>
<path d="M3595 1502 c-33 -16 -75 -41 -93 -57 -18 -15 -35 -25 -37 -23 -3 3
-1 26 4 51 l8 47 -78 0 -78 0 7 -32 c4 -18 7 -163 7 -323 0 -159 -3 -305 -7
-322 l-7 -33 78 0 78 0 -8 43 c-4 23 -8 146 -8 272 l0 230 28 22 c54 43 123
73 165 73 43 -1 62 -11 87 -47 15 -22 16 -21 33 39 16 59 16 63 0 75 -31 23
-113 16 -179 -15z"/>
<path d="M4225 1516 c-52 -17 -122 -52 -164 -84 l-34 -25 5 51 5 52 -71 0 -71
0 3 -303 c2 -166 -1 -326 -6 -355 l-9 -52 79 0 c73 0 79 2 73 18 -5 9 -10 132
-13 272 l-4 255 45 33 c134 96 244 96 288 -1 16 -37 19 -67 18 -262 0 -121 -4
-241 -8 -267 l-8 -48 80 0 c72 0 78 2 71 18 -4 9 -9 132 -12 273 l-4 257 46
31 c142 98 250 93 291 -12 15 -39 16 -76 13 -288 -2 -134 -8 -252 -12 -261 -7
-16 -1 -18 74 -18 74 0 81 2 74 18 -4 9 -10 141 -13 292 -6 240 -9 280 -25
313 -31 63 -101 107 -173 107 -45 0 -144 -39 -211 -84 -77 -51 -82 -53 -82
-31 0 26 -73 92 -115 104 -50 14 -79 13 -130 -3z"/>
<path d="M5304 1514 c-56 -14 -62 -17 -82 -60 -12 -24 -22 -46 -22 -48 0 -2
35 14 77 36 72 37 83 40 145 36 105 -6 154 -54 160 -158 l3 -55 -85 -7 c-242
-20 -367 -97 -378 -234 -8 -100 44 -184 135 -215 21 -8 72 -14 113 -14 76 0
122 13 172 47 34 24 38 23 38 -7 0 -24 2 -25 71 -25 l71 0 -7 32 c-4 18 -10
148 -14 289 l-6 256 -28 42 c-56 84 -216 122 -363 85z m286 -426 c0 -148 -12
-180 -80 -218 -56 -30 -142 -34 -183 -7 -57 37 -84 116 -66 194 22 100 107
150 262 152 l67 1 0 -122z"/>
<path d="M7355 1517 c-72 -19 -131 -52 -179 -100 -142 -142 -136 -397 11 -527
191 -168 510 -111 611 109 34 74 42 205 18 279 -36 108 -108 182 -216 223 -68
26 -179 33 -245 16z m180 -56 c51 -24 99 -74 124 -131 46 -106 51 -258 10
-350 -79 -178 -302 -189 -406 -19 -61 98 -71 297 -20 396 27 51 70 93 117 112
41 16 131 12 175 -8z"/>
<path d="M8261 1510 c-24 -11 -66 -37 -94 -57 l-50 -37 7 52 7 52 -76 0 -76 0
8 -62 c4 -35 8 -166 8 -293 0 -126 -4 -258 -8 -292 l-8 -63 77 0 c74 0 76 1
70 23 -4 12 -10 132 -13 268 l-6 245 41 32 c54 43 119 72 165 72 30 0 46 -7
69 -30 17 -17 31 -30 32 -28 1 2 9 29 18 61 l16 58 -25 10 c-40 15 -115 10
-162 -11z"/>
<path d="M8767 1520 c-101 -26 -175 -87 -224 -187 -35 -71 -37 -82 -37 -167 0
-60 5 -108 17 -141 56 -162 227 -255 421 -228 112 16 144 36 173 108 l24 60
-38 -38 c-52 -55 -106 -79 -185 -85 -59 -4 -75 -1 -123 22 -84 42 -135 124
-151 245 l-7 51 272 0 271 0 0 39 c0 21 -9 68 -20 104 -26 84 -96 164 -171
196 -58 25 -165 35 -222 21z m153 -60 c62 -32 109 -107 125 -199 l7 -41 -206
0 -206 0 0 29 c0 80 63 190 124 217 45 19 111 17 156 -6z"/>
</g>
</svg>
